
<svg xmlns="http://www.w3.org/2000/svg" viewBox="0 0 512 512">
<g transform="translate(0,-540.36218)">
	<path id="text2985" class="" d="M256,540.4c-141,0-256,115-256,256s115,256,256,256s256-115,256-256S397,540.4,256,540.4z
		 M256,599.9c108.9,0,196.4,87.6,196.4,196.5S364.9,992.8,256,992.8S59.5,905.2,59.5,796.4S147.1,599.9,256,599.9z M261.3,665.2
		c-50.1-1-100.5,32.6-113.2,82c-13.1,43-9.5,92.4,13.3,131.4c19.8,31.1,56.3,49.1,92.9,48.7c25.1,0.9,51.4-1.8,74.2-12.4
		c10.5-9.9,3-25.7,5.9-38c0.9-8-6.7-17-15-13.2c-28.6,7.4-61.2,15-88.8,0.9c-24.1-14.2-30.4-44.9-29.6-70.9
		c0.1-25.3,9-53.9,32.9-66.3c25-12.7,54.6-6.2,78.9,4.6c11.4,1.5,19.7-9.1,21.7-19.2c4-8.6,8.4-17,12-25.8
		C321,671.7,291.1,664.6,261.3,665.2z"/>
</g>
</svg>
