<svg xmlns="http://www.w3.org/2000/svg" viewBox="0 0 119 25">
<!-- <rect x="58.4" y="10.6" class="st0" width="2.1" height="3.8"/> -->
<g>
	<path d="M3.9,13.8v5.8H2V4.7h4.8C8.2,4.7,9.2,5.1,10,6c0.8,0.8,1.2,1.9,1.2,3.3c0,1.4-0.4,2.5-1.1,3.3c-0.8,0.8-1.8,1.2-3.2,1.2
		H3.9z M3.9,12.2h2.9c0.8,0,1.5-0.3,1.9-0.8c0.4-0.5,0.7-1.2,0.7-2.1c0-0.9-0.2-1.6-0.7-2.2S7.6,6.3,6.8,6.3H3.9V12.2z" fill="#f8f8f8"/>
	<path d="M18.2,13.6h-2.6v6h-1.9V4.7h4.2c1.5,0,2.6,0.4,3.3,1.1s1.1,1.9,1.1,3.3c0,0.9-0.2,1.7-0.6,2.4c-0.4,0.7-1,1.2-1.7,1.6
		l2.9,6.3v0.1h-2L18.2,13.6z M15.5,12h2.3c0.8,0,1.4-0.3,1.9-0.8c0.5-0.5,0.7-1.2,0.7-2c0-1.9-0.9-2.9-2.6-2.9h-2.3V12z" fill="#f8f8f8"/>
	<path d="M31.9,12.7h-5.3V18h6.2v1.6h-8V4.7h7.9v1.6h-6v4.8h5.3V12.7z" fill="#f8f8f8"/>
	<path d="M41.7,15.9c0-0.7-0.2-1.3-0.6-1.7S40,13.4,39,13s-1.9-0.8-2.4-1.2c-0.6-0.4-1-0.9-1.3-1.4c-0.3-0.5-0.4-1.1-0.4-1.8
		c0-1.2,0.4-2.2,1.2-2.9c0.8-0.8,1.8-1.1,3.1-1.1c0.9,0,1.7,0.2,2.3,0.6s1.2,0.9,1.6,1.6s0.6,1.5,0.6,2.3h-1.9
		c0-0.9-0.2-1.6-0.7-2.1S40,6.1,39.2,6.1c-0.8,0-1.3,0.2-1.8,0.6c-0.4,0.4-0.6,1-0.6,1.8c0,0.6,0.2,1.2,0.7,1.6
		c0.5,0.4,1.1,0.8,2.1,1.1c1.5,0.5,2.5,1.1,3.2,1.8c0.6,0.7,0.9,1.6,0.9,2.8c0,1.2-0.4,2.2-1.2,2.9c-0.8,0.7-1.9,1.1-3.2,1.1
		c-0.9,0-1.7-0.2-2.4-0.6c-0.7-0.4-1.3-0.9-1.7-1.6c-0.4-0.7-0.6-1.5-0.6-2.4h1.9c0,0.9,0.3,1.6,0.8,2.2s1.2,0.8,2.1,0.8
		c0.8,0,1.4-0.2,1.9-0.6S41.7,16.6,41.7,15.9z" fill="#f8f8f8"/>
	<path d="M54.8,6.3h-3.9v13.3H49V6.3h-3.9V4.7h9.7V6.3z" fill="#f8f8f8"/>
	<path d="M59,19.6h-1.9V4.7H59V19.6z" fill="#f8f8f8"/>
	<path d="M71.6,17.8l-0.3,0.4c-0.9,1.1-2.3,1.7-4.1,1.7c-1.6,0-2.9-0.5-3.8-1.6c-0.9-1.1-1.4-2.6-1.4-4.5v-2.9
		c0-2.1,0.4-3.7,1.3-4.7C64,5,65.3,4.5,67,4.5c1.4,0,2.5,0.4,3.3,1.2c0.8,0.8,1.2,1.9,1.3,3.4h-1.9c-0.1-0.9-0.3-1.7-0.8-2.2
		c-0.4-0.5-1.1-0.8-2-0.8c-1.1,0-1.9,0.4-2.4,1.1s-0.8,1.8-0.8,3.4v3c0,1.5,0.3,2.7,0.9,3.5s1.4,1.2,2.5,1.2c1,0,1.8-0.2,2.3-0.7
		l0.3-0.3v-3.4H67v-1.6h4.6V17.8z" fill="#f8f8f8"/>
	<path d="M81.8,12.7h-5.3V18h6.2v1.6h-8V4.7h7.9v1.6h-6v4.8h5.3V12.7z" fill="#f8f8f8"/>
	<path class="st1" d="M92,5.9v2.7h1.7V10H92v6.9c0,0.4,0.1,0.8,0.2,1c0.1,0.2,0.4,0.3,0.7,0.3c0.2,0,0.5,0,0.7-0.1l0,1.5
		c-0.4,0.1-0.8,0.2-1.3,0.2c-0.7,0-1.3-0.3-1.6-0.8c-0.4-0.5-0.6-1.2-0.6-2.2V10h-1.7V8.5h1.7V5.9H92z" fill="#FEA540"/>
	<path class="st1" d="M101.6,19.6c-0.1-0.2-0.2-0.6-0.2-1.2c-0.6,0.9-1.5,1.4-2.5,1.4c-1,0-1.8-0.3-2.4-0.8
		c-0.6-0.6-0.8-1.4-0.8-2.4c0-1.1,0.4-2,1.1-2.7c0.8-0.7,1.8-1,3.1-1h1.3v-1.2c0-0.7-0.1-1.1-0.4-1.4s-0.7-0.4-1.3-0.4
		c-0.5,0-1,0.2-1.3,0.5c-0.3,0.3-0.5,0.7-0.5,1.2h-1.8c0-0.6,0.2-1.1,0.5-1.6s0.8-0.9,1.4-1.2s1.2-0.4,1.9-0.4c1.1,0,2,0.3,2.6,0.8
		c0.6,0.6,0.9,1.4,0.9,2.5v5.6c0,0.9,0.1,1.6,0.3,2.2v0.2H101.6z M99.2,18.2c0.4,0,0.9-0.1,1.3-0.4s0.7-0.6,0.9-0.9v-2.6h-1
		c-0.9,0-1.5,0.2-2,0.6s-0.7,0.9-0.7,1.6c0,0.6,0.1,1.1,0.4,1.4S98.6,18.2,99.2,18.2z" fill="#FEA540"/>
	<path class="st1" d="M109.1,12.6l1.9-4.1h2.1l-3,5.5l3.1,5.6h-2.1l-2-4.2l-2,4.2h-2.1l3.1-5.6l-3-5.5h2.1L109.1,12.6z" fill="#FEA540"/>
	<path class="st1" d="M117.3,5.6c0,0.3-0.1,0.6-0.3,0.8s-0.4,0.3-0.8,0.3c-0.3,0-0.6-0.1-0.8-0.3s-0.3-0.5-0.3-0.8s0.1-0.6,0.3-0.8
		s0.4-0.3,0.8-0.3s0.6,0.1,0.8,0.3C117.2,5,117.3,5.3,117.3,5.6z M117.1,19.6h-1.8V8.5h1.8V19.6z" fill="#FEA540"/>
</g>
</svg>
